 <svg  version="1.0" xmlns="http://www.w3.org/2000/svg"  width="50.000000pt" height="50.000000pt" viewBox="0 0 50.000000 50.000000"  preserveAspectRatio="xMidYMid meet">  <g transform="translate(0.000000,50.000000) scale(0.050000,-0.050000)" fill="#00ffcc" stroke="none"> <path d="M310 922 c-447 -208 -302 -882 190 -882 415 0 618 509 317 794 -133 127 -345 163 -507 88z m397 -67 c254 -140 274 -528 35 -689 -373 -251 -816 153 -596 543 111 195 356 259 561 146z"/> <path d="M380 550 c-59 -60 -101 -115 -93 -123 7 -8 59 30 113 83 l100 98 100 -98 c54 -53 106 -91 113 -83 14 13 -188 233 -213 233 -6 0 -60 -49 -120 -110z"/> </g> </svg> 